<svg width="300" height="436" xmlns="http://www.w3.org/2000/svg"><g class="cell"><path d="M265.88 428C237 433 191 436 150 436s-93.84-3.61-115.88-8C9 423 6 400 4 363c-.92-17-4-70-4-145S4 72 4 72C5 35 9.23 13 34.12 8S109 0 150 0s91.77 2 115.88 8S295 35 296 72c0 0 4 71 4 146s-1.36 124.73-3 145c-3 37-2.23 60-31.12 65z" class="bg" stroke="rgba(255,255,255,.5)" fill="rgba(255,255,255,.5)"/><path d="M150 10.31c18.41 0 80.61.55 108.25 7.62 10.49 2.69 17.29 8.7 21.39 18.91 3.59 8.94 5.34 21.33 5.87 41.45 0 .68 3.72 68.76 3.72 139.71 0 64.71-1 116.58-2.79 138.73-.22 2.86-.42 5.62-.62 8.3-2.22 30.4-3.56 48.75-27.5 53-26.06 4.64-68.58 7.64-108.32 7.64-38.49 0-88.09-3.5-108.3-7.64-22.62-4.63-25.37-26.25-27.21-61.29l-.13-2.36c-1-18.54-3.59-67.8-3.59-136.4 0-70.95 3.68-139 3.72-139.74 1-36.47 5.43-55.81 27.22-60.31 24.25-5 72.83-7.64 108.29-7.64m0-1c-38.14 0-85.35 2.87-108.5 7.66s-27.08 25.84-28 61.26c0 0-3.72 68-3.72 139.77s2.87 122.56 3.72 138.81c1.86 35.42 4.65 57.44 28 62.22 20.51 4.2 70.36 7.66 108.5 7.66s81.63-2.87 108.5-7.66 26.15-26.8 28.94-62.22c1.53-19.41 2.79-67 2.79-138.81s-3.72-139.77-3.72-139.77c-.93-35.42-5.58-55.52-28-61.26S188.14 9.31 150 9.31z" class="stroke" fill="#fff" stroke="#fff" stroke-width="4"/></g></svg>