<svg width="204.54" height="207.46" xmlns="http://www.w3.org/2000/svg" fill="#fff"><path d="M0 118.52h60.57s.42 1.17 1.49 3.35c10.51 22.12 34.09 31.79 56.93 22.92 12.07-4.69 20.49-13.53 24.76-26.27h60.6c-3.66 40.18-40.45 85.21-95.06 88.75C51.23 211 6.29 167.58 0 118.52zm204.54-29.57h-60.78a15.33 15.33 0 00-1.28-3.46c-8-16.74-21.42-25.84-39.89-25.95-18.72-.12-32.16 9.09-40.51 25.9-.77 1.53-1.51 3.51-1.51 3.51H.22C5.37 43.39 47.22-.42 103.16 0s96.58 44.39 101.38 88.95z"/><path d="M102.15 124.4a20.39 20.39 0 1120.53-19.9 20.5 20.5 0 01-20.53 19.9z"/></svg>